<svg xmlns="http://www.w3.org/2000/svg" viewBox="0 0 2500 2500"><defs><style>.cls-1{isolation:isolate;}.cls-2{fill:#71558a;}.cls-3{fill:#c49fca;}.cls-4,.cls-7{fill:#9963a9;}.cls-5{fill:#fff;}.cls-6{fill:#010101;}.cls-7{opacity:0.5;mix-blend-mode:multiply;}</style></defs><g class="cls-1"><g id="Layer_1" data-name="Layer 1"><path class="cls-2" d="M2068.9,1139.29S1686.67,517.82,1121.06,770c-58.28,26-176.74,136.7-58.28,248.59Z"/><path class="cls-2" d="M746.65,1229.92S579,1295.47,324.44,1121.09c0,0,108.45,136.32,139.09,180.11L303.26,1444s234-118.4,443.39-63.92S746.65,1229.92,746.65,1229.92Z"/><path class="cls-3" d="M1667.82,1674.16S1187,2008.64,769.89,1542c0,0,90.58-58.23,189-52.69Z"/><path class="cls-4" d="M2196.17,1331.94c-3.2-7.66-4.9-9.21-9.6-18.65-59.35-118.77-500.3-893.15-1529.54-9.35,0,0,755.86,801.52,1478.3,108.32C2157,1391.47,2202.35,1346.91,2196.17,1331.94Z"/><path class="cls-2" d="M1281.93,1668.68c1-284.41,93.76-506.29,93.76-506.29-45.71,175.79-23.4,450.55-16.51,521.57Q1319.87,1677.89,1281.93,1668.68Z"/><path class="cls-2" d="M1149.58,1627.58q-31.5-12-61.46-25.48c-6.1-221.85,94.44-426,94.44-426C1124.27,1318.83,1145.12,1579.72,1149.58,1627.58Z"/><path class="cls-2" d="M905.2,1502.72c15.9-163.23,77.34-306.83,77.34-306.83-27.27,83.37-32.11,238.34-32.2,334.71Q927,1516.77,905.2,1502.72Z"/><path class="cls-5" d="M1860.2,1162.39a76.33,76.33,0,1,0,76.36-76.34A76.37,76.37,0,0,0,1860.2,1162.39Z"/><path class="cls-6" d="M1894.69,1162.39a41.82,41.82,0,1,0,41.87-41.8A41.81,41.81,0,0,0,1894.69,1162.39Z"/><path class="cls-7" d="M2135.33,1412.26c21.63-20.79,67-65.35,60.84-80.32L657,1303.94S1412.89,2105.46,2135.33,1412.26Z"/></g></g></svg>