<svg id="Layer_1" data-name="Layer 1" xmlns="http://www.w3.org/2000/svg" viewBox="0 0 2500 2500"><defs><style>.cls-1{fill:#63489d;}.cls-2{fill:#f8e605;}.cls-3{fill:#f4b81a;}.cls-4{fill:#fff;}.cls-5{fill:#010101;}.cls-6{fill:#f1c718;}.cls-7{fill:#af97c7;}</style></defs><path class="cls-1" d="M1715.4,1224.54s149.44-147.31,50.36-332.62c-59.78-111.82-547.89-545-954.31,93.53l275.26,206Z"/><path class="cls-1" d="M1706,1387.75s165,324.17,18.13,382.53-492.52,40.34-672.23-29.63Z"/><path class="cls-1" d="M1011.44,1735.85s18.18,61.37,99,119.7c0,0-175.15-66.84-226.72-156.85Z"/><path class="cls-1" d="M869,1707.65s12.84,73.26,57.53,114.48c0,0-103.84-73.87-129-153.41l44.69-13.25Z"/><path class="cls-2" d="M1596.27,1549.94s345-303.65-98.52-567.37-802-69.59-803.41,190.09c-.57,103.45-163.43,122.54-211.36,146.52,0,0-51.25,20.15,32,59.92,163.48,78.12,140.1,146.15,232.67,246.66C900,1791.09,1315.17,1817.66,1596.27,1549.94Z"/><path class="cls-2" d="M1723.21,1269.12l273.39-229.31s81.06,369.15,0,558.73L1706,1387.75Z"/><path class="cls-3" d="M1922.57,1544.83c42.93-214.32-6.78-437.26-6.78-437.26h0l80.81-67.76s81.06,369.15,0,558.73l-74-53.71Z"/><path class="cls-4" d="M763.91,1186.15a105.06,105.06,0,1,0,105.07-105A105.07,105.07,0,0,0,763.91,1186.15Z"/><path class="cls-5" d="M811.45,1186.15A57.53,57.53,0,1,0,869,1128.63,57.53,57.53,0,0,0,811.45,1186.15Z"/><path class="cls-6" d="M467.51,1335.66,1722,1323.16c-16.7,130.84-125.69,226.78-125.69,226.78-281.1,267.72-696.25,241.15-848.65,75.82C655.05,1525.25,678.43,1457.22,515,1379.1,475.26,1360.14,466.19,1345.63,467.51,1335.66Z"/><path class="cls-1" d="M1051.88,966.27s184.2,382.48-10,669.83C1041.86,1636.1,1104,1201.94,1051.88,966.27Z"/><path class="cls-1" d="M1273.53,966.27s184.17,382.48-10,669.83C1263.5,1636.1,1325.68,1201.94,1273.53,966.27Z"/><path class="cls-7" d="M1518.09,1102.43s109.27,227-6,397.51C1512.11,1499.94,1549,1242.27,1518.09,1102.43Z"/></svg>