<svg xmlns="http://www.w3.org/2000/svg" viewBox="0 0 2500 2500"><defs><style>.cls-1{isolation:isolate;}.cls-2{fill:#a486b0;}.cls-3{fill:#f2f2f2;}.cls-4{fill:#e3e3e3;}.cls-4,.cls-5{mix-blend-mode:multiply;}.cls-5{fill:#c9c9c9;opacity:0.6;}.cls-6{fill:#8c6799;}.cls-7{fill:#924f91;}.cls-8{fill:#fff;}.cls-9{fill:#010101;}</style></defs><g class="cls-1"><g id="Layer_1" data-name="Layer 1"><path class="cls-2" d="M1816.13,1490v.18c-72.2,158.24-278,138.46-278,138.46,81.32-44.46,135.75-128.32,135.75-128.32C1723.83,1498.12,1771.3,1494.56,1816.13,1490Z"/><path class="cls-2" d="M1492.17,1501.16c34.67,1.19,68.31,1.51,101.3,1.19v.16c-57.53,82.86-163.52,93.85-163.52,93.85,52.94-52.93,62.22-95,62.22-95Z"/><path class="cls-3" d="M2179.63,1282.54h-.15c-74.58-107.54-168.22-174-271.55-210.51-13-4.55-26.18-8.78-39.56-12.33-289.61-80.15-643.15,53.24-869.74,165.85-41.77,20.81-79.12,40.91-111.09,58.86-70.32,39.37-114.13,68.47-118.35,71.36a.51.51,0,0,1-.32.15s769.3-.13,1458.52-.13C2223.33,1346.82,2199.76,1311.61,2179.63,1282.54Z"/><path class="cls-4" d="M887.54,1398.35c212.37,68.65,419.19,97.06,604.63,102.81,34.67,1.19,68.31,1.51,101.3,1.19,27.58-.16,54.29-1,80.45-2,49.91-2.2,97.38-5.76,142.21-10.32,261.88-26,411.26-134.21,411.26-134.21-309-111.39-916.17-104.52-1458.2,0,0,0,0,.22-.06.27Q828.62,1379.28,887.54,1398.35Z"/><path class="cls-5" d="M768.87,1355.92s694.26,0,1458.52-.13c0,0-149.38,108.16-411.26,134.21-44.83,4.56-92.3,8.12-142.21,10.32-26.16,1-52.87,1.87-80.45,2-33,.32-66.63,0-101.3-1.19-185.44-5.75-392.26-34.16-604.63-102.81Q828.47,1379.35,768.87,1355.92Z"/><path class="cls-6" d="M877.57,1138.83s543.27-438.43,990.8-79.13c-289.61-80.15-643.15,53.24-869.74,165.85C996.09,1223.35,939.13,1174.52,877.57,1138.83Z"/><path class="cls-7" d="M788.49,1103.31S1411.54,601.17,1907.93,1072c-13-4.55-26.18-8.78-39.56-12.33-447.53-359.3-990.8,79.13-990.8,79.13C847,1121.25,815.38,1106.88,788.49,1103.31Z"/><path class="cls-6" d="M768.87,1355.92q59.58,23.34,118.67,42.43c-140.84,75.93-295.88,101.81-415.06,108.72l172.11-159.26-174.5-161.48c127.65,4.58,292.5,26.38,417.45,98.08-70.32,39.37-114.13,68.47-118.35,71.36A.51.51,0,0,1,768.87,1355.92Z"/><path class="cls-7" d="M644.59,1347.81,472.48,1507.07c-117.35,6.77-199.87-4.56-199.87-4.56l202.93-146.59L272.61,1191.74s83.84-9.46,197.48-5.41Z"/><path class="cls-8" d="M2118.8,1270.32a91.34,91.34,0,1,1-91.33-91.32A91.32,91.32,0,0,1,2118.8,1270.32Z"/><path class="cls-9" d="M2084.08,1270.32a56.61,56.61,0,1,1-56.61-56.59A56.63,56.63,0,0,1,2084.08,1270.32Z"/></g></g></svg>