<svg xmlns="http://www.w3.org/2000/svg" viewBox="0 0 2500 2500"><defs><style>.cls-1{isolation:isolate;}.cls-2,.cls-3{fill:#973746;}.cls-11,.cls-14,.cls-15,.cls-3,.cls-6,.cls-9{mix-blend-mode:multiply;}.cls-10,.cls-4{fill:#fff;}.cls-5{fill:#ced0d1;}.cls-6,.cls-7,.cls-9{fill:#6a8ca3;}.cls-8{fill:#557082;}.cls-9{opacity:0.61;}.cls-10{opacity:0.89;mix-blend-mode:screen;}.cls-11{fill:#374d5b;}.cls-12{fill:#293d48;}.cls-13{fill:#273a44;}.cls-14{fill:#dbdcdc;}.cls-15{fill:#2c404d;opacity:0.6;}.cls-16{fill:#1f6356;}.cls-17{fill:#08453b;}</style></defs><g class="cls-1"><g id="Layer_1" data-name="Layer 1"><path class="cls-2" d="M1691.65,1226.18q5.43,1,10.86,2c35,6.24,70.19,11.71,105.52,15.85,36.88,4.32,74,7.19,111.09,7.84a755.93,755.93,0,0,0,110.72-5.68,546.56,546.56,0,0,0,72.29-14.23c-15.75,6.84-31.29,14.24-47.51,19.92a202,202,0,0,1-25.91,7.26c-8.37,1.72-16.81,3.19-25.2,4.77-15.15,2.86-30.38,5.73-45.43,9.24-13.67-.68-27.33-1.89-40.86-2.68-16.6-1-33.32-1.41-49.87.53-13.26,1.55-27.36,3.71-37.25,13.48-8.31,8.21-12.52,19.63-15.3,30.74-3.11,12.45-5.08,25.32-7,38-4,27-6.15,54.82-.65,81.73a120.24,120.24,0,0,0,14.12,37.3,107.16,107.16,0,0,0,9.28,13.23c-.68.33-1.35.67-2,1-22.07-15.82-41.7-35-58.88-56-16.26-19.84-29.77-41.33-41.62-64-12.17-23.3-23.11-47.47-30.81-72.64-3.71-12.12-6.72-24.58-7.89-37.22C1688.4,1246.43,1688.63,1236,1691.65,1226.18Z"/><path class="cls-3" d="M1804.08,1296.66c-5.7,12.66-7.91,26.94-10.11,40.46a302.84,302.84,0,0,0-3.8,40.45c-.36,12.27-.32,24.55-.62,36.82a96.71,96.71,0,0,1-6.66-24.53,140,140,0,0,1,5.65-63.9C1792,1315.55,1797.08,1305.23,1804.08,1296.66Z"/><path class="cls-3" d="M1782.39,1296q-3.75,14.43-6.07,29.18c-1.56,9.85-2.78,20.37-7.21,29.46a42.34,42.34,0,0,1-1.24-11.77c0-9.4.87-19.5,3.67-28.52A44.26,44.26,0,0,1,1782.39,1296Z"/><path class="cls-3" d="M1691.65,1226.18q5.43,1,10.86,2,26.73,4.75,53.58,8.85a396.44,396.44,0,0,1,6.87,47.54c3.5,41.63,1.21,83.59-4,125-.25,2-.54,4-.81,6a393,393,0,0,1-30.12-49.11c-12.17-23.3-23.11-47.47-30.81-72.64-3.71-12.12-6.72-24.58-7.89-37.22C1688.4,1246.43,1688.63,1236,1691.65,1226.18Z"/><path class="cls-4" d="M1749.26,1409s3.21-3.85,7.82-10.16,10.62-15,16.38-24.62c0,0-5.13,2-12.26,5.09a196.23,196.23,0,0,0-24,12.18C1740.79,1397.58,1745.21,1403.18,1749.26,1409Z"/><path class="cls-5" d="M1749.21,1410.24a1.27,1.27,0,0,1-1-.54c-1.24-1.79-2.53-3.56-3.81-5.34-2.85-3.92-5.79-8-8.31-12.24a1.24,1.24,0,0,1,.41-1.69,200.77,200.77,0,0,1,24.18-12.26c7.06-3.09,12.26-5.09,12.31-5.11a1.24,1.24,0,0,1,1.51,1.79c-6.17,10.28-12.35,19.11-16.45,24.72-4.58,6.27-7.83,10.18-7.87,10.22a1.24,1.24,0,0,1-1,.45Zm12.49-29.8a205.08,205.08,0,0,0-22.82,11.46c2.32,3.79,5,7.46,7.55,11,1,1.34,2,2.68,2.9,4,1.3-1.61,3.73-4.71,6.74-8.83,3.65-5,8.94-12.53,14.4-21.37C1768.3,1377.62,1765.24,1378.89,1761.7,1380.44Z"/><path class="cls-4" d="M1761.58,1424.81a113.71,113.71,0,0,0,9.06-9.9,145.74,145.74,0,0,0,16.65-25s-5.83,2.23-13.47,5.55-17.32,7.88-24.81,13.14C1752.84,1414.29,1757.3,1419.48,1761.58,1424.81Z"/><path class="cls-5" d="M1761.49,1426.05a1.27,1.27,0,0,1-.88-.47q-1.45-1.8-2.92-3.59c-3.29-4-6.71-8.24-9.7-12.65a1.24,1.24,0,0,1,.31-1.71c7.67-5.39,17.4-9.91,25-13.26s13.46-5.54,13.52-5.56a1.22,1.22,0,0,1,1.37.33,1.25,1.25,0,0,1,.18,1.39,146.24,146.24,0,0,1-16.8,25.17,112.21,112.21,0,0,1-9.17,10,1.25,1.25,0,0,1-.84.33Zm12.82-29.41c-7.17,3.15-16.24,7.37-23.57,12.32,2.76,4,5.87,7.77,8.88,11.46l2.07,2.55c1.46-1.45,4.44-4.53,8-8.85a146,146,0,0,0,14.92-21.77C1782.16,1393.33,1778.5,1394.82,1774.31,1396.64Z"/><path class="cls-4" d="M1774.8,1439.91a114.39,114.39,0,0,0,7.44-10,173.25,173.25,0,0,0,14.15-25.49s-5.1,2.28-12.08,5.89-15.83,8.53-23,14.21C1765.49,1429.88,1770.18,1434.87,1774.8,1439.91Z"/><path class="cls-5" d="M1773.89,1440.75l-1.74-1.89c-4-4.35-8.13-8.85-11.82-13.63a1.24,1.24,0,0,1,.21-1.73c7.51-5.93,16.84-11,23.2-14.34,6.93-3.58,12.1-5.89,12.15-5.91a1.24,1.24,0,0,1,1.38.25,1.26,1.26,0,0,1,.26,1.39,173.91,173.91,0,0,1-14.26,25.67,111.61,111.61,0,0,1-7.53,10.16,1.2,1.2,0,0,1-.92.43h0A1.22,1.22,0,0,1,1773.89,1440.75Zm11-29.38c-6,3.12-14.67,7.84-21.84,13.32,3.43,4.33,7.24,8.47,10.93,12.49l.77.85c1.23-1.53,3.61-4.6,6.46-8.85a171.32,171.32,0,0,0,12.65-22.26C1791.7,1407.94,1788.55,1409.47,1784.89,1411.37Z"/><path class="cls-4" d="M1788.91,1454.23a111.28,111.28,0,0,0,7.83-10.89,147.51,147.51,0,0,0,13.62-26.73l-3.66,2c-2.26,1.23-5.43,3-9,5.09-7.23,4.24-16.3,9.84-23.14,15.93C1779,1444.75,1784,1449.46,1788.91,1454.23Z"/><path class="cls-5" d="M1788.05,1455.12l-2.1-2c-4.17-4-8.47-8.22-12.37-12.68a1.23,1.23,0,0,1,.11-1.74c7-6.21,16.13-11.85,23.33-16.07,3.63-2.12,6.82-3.88,9.09-5.11l3.66-2a1.24,1.24,0,0,1,1.75,1.53,147.16,147.16,0,0,1-13.74,27,113.3,113.3,0,0,1-7.92,11,1.23,1.23,0,0,1-.89.43h-.06A1.22,1.22,0,0,1,1788.05,1455.12Zm19.24-35.45c-2.25,1.22-5.41,3-9,5.07-6.79,4-15.32,9.22-22,15,3.61,4,7.57,7.88,11.41,11.6l1.12,1.09c1.28-1.61,3.88-5,6.9-9.73a151.47,151.47,0,0,0,12.26-23.36Z"/><path class="cls-4" d="M1803.86,1467.7a116.39,116.39,0,0,0,6.19-10.87,176.22,176.22,0,0,0,11-27l-3.24,2c-2,1.27-4.83,3.09-8.08,5.29-6.48,4.42-14.71,10.34-21.16,16.82C1793.4,1458.83,1798.72,1463.17,1803.86,1467.7Z"/><path class="cls-5" d="M1803,1468.63c-1.27-1.12-2.56-2.24-3.85-3.35-3.85-3.33-7.83-6.77-11.47-10.48a1.23,1.23,0,0,1,0-1.74c6.71-6.74,15.39-12.92,21.34-17,3.26-2.22,6.1-4,8.12-5.32l3.25-2a1.22,1.22,0,0,1,1.41.07,1.24,1.24,0,0,1,.43,1.35,178.82,178.82,0,0,1-11.13,27.22,112,112,0,0,1-6.26,11,1.23,1.23,0,0,1-.87.54h-.16A1.25,1.25,0,0,1,1803,1468.63Zm15.47-35.76c-2,1.26-4.81,3.07-8,5.27-5.61,3.82-13.67,9.54-20.11,15.8,3.33,3.31,7,6.43,10.45,9.46l2.78,2.41c1-1.66,3-5,5.36-9.55a178.2,178.2,0,0,0,9.92-23.62Z"/><path class="cls-4" d="M1820.27,1480.77s1.93-4.64,4.49-12,5.78-17.55,8.52-28.39c0,0-4.37,3.44-10.27,8.47a200.64,200.64,0,0,0-19.47,18.61l4,3.49,4.22,3.29Z"/><path class="cls-5" d="M1819.51,1481.75l-12.73-9.9-4-3.49a1.26,1.26,0,0,1-.43-.86,1.24,1.24,0,0,1,.31-.9,202.51,202.51,0,0,1,19.6-18.73c5.85-5,10.26-8.47,10.3-8.51a1.24,1.24,0,0,1,2,1.28c-2.91,11.53-6.26,21.86-8.55,28.49-2.54,7.36-4.5,12.07-4.52,12.11a1.24,1.24,0,0,1-.82.73,1.75,1.75,0,0,1-.32,0A1.25,1.25,0,0,1,1819.51,1481.75Zm4.31-32a207.24,207.24,0,0,0-18.52,17.55l3,2.63,11.38,8.85c.77-1.93,2.18-5.61,3.85-10.46,2-5.88,4.91-14.7,7.56-24.67C1829.31,1445.14,1826.75,1447.25,1823.82,1449.75Z"/><path class="cls-4" d="M1836.8,1492.26a113.39,113.39,0,0,0,5.67-12.11,151,151,0,0,0,8.58-28.93s-4.86,3.81-11.25,9.35-14.27,12.72-19.87,19.93C1825.46,1484.55,1831.1,1488.46,1836.8,1492.26Z"/><path class="cls-5" d="M1836.12,1493.29c-6.1-4.07-11.64-7.92-16.92-11.79a1.23,1.23,0,0,1-.5-.82,1.26,1.26,0,0,1,.25-.94c5.55-7.16,13.24-14.18,20-20.11,6.34-5.49,11.25-9.35,11.3-9.39a1.25,1.25,0,0,1,1.41-.08,1.21,1.21,0,0,1,.57,1.28,151.49,151.49,0,0,1-8.65,29.17,111.1,111.1,0,0,1-5.74,12.26,1.26,1.26,0,0,1-.79.6,1.43,1.43,0,0,1-.29,0A1.19,1.19,0,0,1,1836.12,1493.29Zm4.5-31.79c-6.38,5.57-13.57,12.11-18.92,18.76,4.61,3.35,9.43,6.71,14.66,10.21,1-1.81,2.87-5.64,5-10.79a154,154,0,0,0,7.86-25.37C1847.14,1456,1844.1,1458.48,1840.62,1461.5Z"/><path class="cls-4" d="M1854,1502.69a114.85,114.85,0,0,0,4-11.79,187.46,187.46,0,0,0,5.93-28.71s-4.21,3.75-9.81,9.32-12.61,13-17.76,20.52C1842.29,1495.6,1848,1499.47,1854,1502.69Z"/><path class="cls-5" d="M1853.45,1503.78c-4.15-2.2-8.16-4.73-12-7.18-1.87-1.18-3.73-2.36-5.62-3.51a1.25,1.25,0,0,1-.38-1.75c5.36-7.87,12.79-15.58,17.92-20.71,5.56-5.53,9.82-9.33,9.86-9.37a1.24,1.24,0,0,1,1.4-.17,1.22,1.22,0,0,1,.65,1.25,186.34,186.34,0,0,1-6,28.91,116.21,116.21,0,0,1-4.1,11.93,1.29,1.29,0,0,1-.73.68,1.41,1.41,0,0,1-.41.07A1.19,1.19,0,0,1,1853.45,1503.78Zm1.63-31.39c-4.82,4.81-11.7,11.95-16.87,19.27l4.52,2.84c3.46,2.18,7,4.43,10.67,6.44.7-1.81,2-5.46,3.49-10.39a186.81,186.81,0,0,0,5.44-25.14C1860.57,1467.05,1858,1469.47,1855.08,1472.39Z"/><path class="cls-4" d="M1871.82,1512.09a111.58,111.58,0,0,0,4.17-12.75,150.73,150.73,0,0,0,4.94-29.64s-4.34,4.34-10,10.57-12.61,14.35-17.3,22.21l9,5Z"/><path class="cls-5" d="M1871.27,1513.2l-9.24-4.63-9-5a1.27,1.27,0,0,1-.6-.76,1.24,1.24,0,0,1,.14-1c4.75-8,11.81-16.16,17.44-22.4s10-10.57,10-10.61a1.24,1.24,0,0,1,1.39-.26,1.26,1.26,0,0,1,.73,1.21,151.16,151.16,0,0,1-5,29.88,111.74,111.74,0,0,1-4.22,12.91,1.27,1.27,0,0,1-.71.69,1.29,1.29,0,0,1-.43.07A1.21,1.21,0,0,1,1871.27,1513.2Zm.6-32.1c-5.29,5.87-11.87,13.48-16.49,20.92l7.81,4.36,8,4c.73-1.92,2.17-6,3.62-11.36a149,149,0,0,0,4.65-26C1877.64,1474.87,1874.94,1477.71,1871.87,1481.1Z"/><path class="cls-4" d="M1727.21,1375.31l3.33-.9c2.15-.55,5.2-1.28,9.06-2.15,7.67-1.72,18.17-3.77,29.37-5.22,0,0-3.92,3.93-9.68,9.22a201.06,201.06,0,0,1-20.92,17.11C1734.66,1387.35,1730.71,1381.45,1727.21,1375.31Z"/><path class="cls-5" d="M1738.12,1394.59a1.23,1.23,0,0,1-.8-.57c-1.26-2-2.54-4-3.82-6.08-2.48-3.9-5-7.93-7.36-12a1.23,1.23,0,0,1-.07-1.09,1.22,1.22,0,0,1,.82-.71l3.34-.91c2.16-.55,5.22-1.29,9.1-2.16,6.88-1.54,17.59-3.7,29.48-5.24a1.26,1.26,0,0,1,1.27.68,1.25,1.25,0,0,1-.23,1.42s-4,4-9.72,9.26a203.12,203.12,0,0,1-21.06,17.23,1.25,1.25,0,0,1-.7.21Zm1.75-21.12c-3.84.86-6.88,1.59-9,2.14l-1.78.48c2.08,3.56,4.33,7.1,6.5,10.53q1.59,2.49,3.15,5a208.51,208.51,0,0,0,19.71-16.27c2.86-2.62,5.28-4.93,7-6.57C1755.13,1370.24,1746,1372.1,1739.87,1373.47Z"/><path class="cls-4" d="M1717.66,1357.83a112.71,112.71,0,0,1,12.7-4.42,143.31,143.31,0,0,1,29.69-5.41s-4.31,4.43-10.51,10.17-14.29,12.77-22.12,17.52Z"/><path class="cls-5" d="M1727.1,1376.88a1.23,1.23,0,0,1-.77-.6l-9.76-17.85a1.25,1.25,0,0,1-.08-1,1.21,1.21,0,0,1,.67-.73,111,111,0,0,1,12.85-4.48,144.83,144.83,0,0,1,30-5.46,1.24,1.24,0,0,1,1,2.1c0,.05-4.4,4.53-10.56,10.22-5.66,5.21-14.13,12.71-22.32,17.67a1.3,1.3,0,0,1-.64.17A1.12,1.12,0,0,1,1727.1,1376.88Zm3.6-22.28c-5.36,1.56-9.37,3.08-11.29,3.85l8.47,15.49c7.65-4.83,15.5-11.79,20.82-16.69,3.4-3.13,6.24-5.9,8.1-7.74A144.58,144.58,0,0,0,1730.7,1354.6Z"/><path class="cls-4" d="M1709.13,1339.9a113.75,113.75,0,0,1,12.14-3,165.77,165.77,0,0,1,29.1-3.11s-4.16,3.86-10.29,8.88-14.18,11.2-22.22,15.53C1714.81,1352.17,1712,1346,1709.13,1339.9Z"/><path class="cls-5" d="M1717.49,1359.39a1.23,1.23,0,0,1-.73-.63c-2-4-4-8.16-5.85-12.17-1-2-1.92-4.11-2.9-6.16a1.24,1.24,0,0,1,.73-1.71,116.65,116.65,0,0,1,12.3-3,166.83,166.83,0,0,1,29.32-3.13,1.31,1.31,0,0,1,1.17.78,1.27,1.27,0,0,1-.31,1.38s-4.26,3.93-10.36,8.92c-5.6,4.56-14,11.15-22.41,15.67a1.31,1.31,0,0,1-.59.14A1.57,1.57,0,0,1,1717.49,1359.39Zm4-21.27c-5,1-8.77,2-10.65,2.54q1.16,2.44,2.29,4.88c1.68,3.61,3.42,7.33,5.23,11,7.84-4.39,15.63-10.5,20.91-14.79,3.23-2.65,5.94-5,7.75-6.59A164.75,164.75,0,0,0,1721.52,1338.12Z"/><path class="cls-4" d="M1701.44,1321.65a111.52,111.52,0,0,1,13-3.2,137,137,0,0,1,29.88-2.44s-4.8,4-11.42,9.09-15.35,11.24-23.6,15.18C1706.27,1334.22,1704,1327.88,1701.44,1321.65Z"/><path class="cls-5" d="M1708.2,1340.84c-2.22-4.44-4.07-9.08-5.85-13.57-.68-1.72-1.36-3.44-2.06-5.15a1.22,1.22,0,0,1,0-1,1.25,1.25,0,0,1,.73-.66,112,112,0,0,1,13.17-3.23,138.54,138.54,0,0,1,30.17-2.47,1.24,1.24,0,0,1,.75,2.19c-.05,0-4.9,4.12-11.47,9.13-6.07,4.58-15.13,11.16-23.81,15.31a1.32,1.32,0,0,1-.54.12A1.25,1.25,0,0,1,1708.2,1340.84Zm6.48-21.17c-5.48,1-9.62,2.18-11.59,2.76.53,1.31,1.05,2.62,1.57,3.93,1.61,4.06,3.28,8.25,5.22,12.27,8.14-4.08,16.56-10.19,22.28-14.52,3.65-2.78,6.76-5.27,8.81-6.93A140,140,0,0,0,1714.68,1319.67Z"/><path class="cls-4" d="M1694.51,1303.15a111.21,111.21,0,0,1,12.3-1.89,170,170,0,0,1,29.28-.44s-4.44,3.44-11,7.85-15.11,9.81-23.54,13.37C1699.07,1315.79,1696.5,1309.56,1694.51,1303.15Z"/><path class="cls-5" d="M1701.11,1323.19a1.24,1.24,0,0,1-.67-.68l-.71-1.78c-2.26-5.59-4.59-11.36-6.41-17.21a1.27,1.27,0,0,1,.11-1,1.24,1.24,0,0,1,.8-.59,111.51,111.51,0,0,1,12.45-1.91,169.5,169.5,0,0,1,29.5-.44,1.23,1.23,0,0,1,.67,2.21s-4.55,3.52-11,7.9c-5.9,4-14.77,9.69-23.75,13.49a1.28,1.28,0,0,1-.48.09A1.36,1.36,0,0,1,1701.11,1323.19Zm5.83-20.7c-5.11.54-8.94,1.22-10.84,1.59,1.73,5.32,3.86,10.6,5.92,15.72l.25.6a147,147,0,0,0,22.16-12.75c3.42-2.32,6.28-4.37,8.21-5.79A167.66,167.66,0,0,0,1706.94,1302.49Z"/><path class="cls-4" d="M1688.05,1283.65s4.92-.26,12.8-.17a296.32,296.32,0,0,1,29.79,1.86s-4.73,2.9-11.59,6.65a195.71,195.71,0,0,1-24.41,11.56C1692.45,1296.92,1690.13,1290.31,1688.05,1283.65Z"/><path class="cls-5" d="M1694.1,1304.67a1.28,1.28,0,0,1-.64-.73c-.73-2.23-1.48-4.45-2.24-6.68-1.48-4.4-3-8.81-4.35-13.23a1.23,1.23,0,0,1,1.11-1.61s5.06-.26,12.89-.18a295.05,295.05,0,0,1,29.91,1.87,1.24,1.24,0,0,1,.5,2.29s-4.83,2.95-11.64,6.68a191.69,191.69,0,0,1-24.57,11.63,1.26,1.26,0,0,1-.43.08A1.29,1.29,0,0,1,1694.1,1304.67Zm6.74-20c-5.16-.06-9.07,0-11.12.11,1.24,3.89,2.55,7.76,3.85,11.64q.93,2.73,1.84,5.46a196.35,196.35,0,0,0,23-11c3.42-1.87,6.33-3.54,8.37-4.73C1716.5,1285.12,1707.14,1284.8,1700.84,1284.72Z"/><path class="cls-4" d="M1682.86,1264.71a109.44,109.44,0,0,1,13.32-1.57,134.5,134.5,0,0,1,30.08,1.35s-5.2,3.39-12.55,7.58-16.84,9.17-25.55,12Z"/><path class="cls-5" d="M1687.57,1285.15a1.27,1.27,0,0,1-.6-.76l-5.31-19.36a1.23,1.23,0,0,1,.95-1.54,111.3,111.3,0,0,1,13.49-1.59,135.91,135.91,0,0,1,30.36,1.37,1.22,1.22,0,0,1,1,1,1.24,1.24,0,0,1-.53,1.29s-5.32,3.46-12.61,7.61c-10.37,5.88-18.8,9.84-25.79,12.1a1.21,1.21,0,0,1-.38.06A1.23,1.23,0,0,1,1687.57,1285.15Zm8.69-20.77a119,119,0,0,0-11.85,1.31l4.6,16.78c6.59-2.27,14.49-6,24.09-11.48,4.05-2.31,7.46-4.38,9.69-5.77A136.3,136.3,0,0,0,1696.26,1264.38Z"/><path class="cls-4" d="M1916,1242.2s-1.16,11.52-3.92,29.15a608.94,608.94,0,0,1-13.86,65.66s-1.7-12.84-3.35-31.1-3.23-41.93-3.27-63.62c4.07,0,8.15.19,12.22.14Z"/><path class="cls-5" d="M1898.17,1338.24a1.25,1.25,0,0,1-1.15-1.07c0-.13-1.72-13.07-3.35-31.15-1.21-13.23-3.24-39.12-3.28-63.73a1.27,1.27,0,0,1,.36-.88,1,1,0,0,1,.89-.36c1.46,0,2.92,0,4.39.07,2.6.05,5.2.1,7.79.07L1916,1241h0a1.24,1.24,0,0,1,.91.4,1.22,1.22,0,0,1,.32,1c0,.11-1.19,11.76-3.92,29.22a604.24,604.24,0,0,1-13.89,65.8,1.25,1.25,0,0,1-1.2.91Zm5.69-94.57c-2.61,0-5.25,0-7.88-.07l-3.11,0c.11,24.13,2.08,49.28,3.27,62.25.94,10.48,1.92,19.23,2.57,24.74,4.72-18.09,8.81-38,12.17-59.39,2.19-13.92,3.37-24.12,3.77-27.69Z"/><path class="cls-4" d="M1939.17,1241.77s.12,12.69-1.19,31.47-4.08,43.68-10.2,68.11c0,0-2.89-13.95-5.78-33.32s-5.76-44.15-6.23-65.83Z"/><path class="cls-5" d="M1927.75,1342.59a1.24,1.24,0,0,1-1.19-1c0-.14-2.92-14.2-5.78-33.38-2.1-14-5.71-41.19-6.25-66a1.23,1.23,0,0,1,.34-.89,1.27,1.27,0,0,1,.88-.38l23.4-.43a1.59,1.59,0,0,1,.89.35,1.26,1.26,0,0,1,.37.88c0,.13.11,13-1.19,31.57-1.78,25.33-5.22,48.31-10.24,68.32a1.25,1.25,0,0,1-1.2.94ZM1917,1243.42c.63,24.32,4.13,50.72,6.19,64.43,1.78,11.92,3.57,21.86,4.67,27.68a407.53,407.53,0,0,0,8.85-62.38c1-15.18,1.17-26.47,1.18-30.11Z"/><path class="cls-4" d="M1962.2,1240.61s.08,11.51-1.13,29.17a438.16,438.16,0,0,1-9.41,66.12s-2.83-12.69-5.8-30.79-6-41.65-6.95-63.33C1946.69,1241.48,1954.43,1241,1962.2,1240.61Z"/><path class="cls-5" d="M1951.66,1337.14a1.26,1.26,0,0,1-1.21-1c0-.13-2.87-12.93-5.81-30.86-2.15-13-5.91-38.66-7-63.48a1.25,1.25,0,0,1,1.19-1.29c4.91-.19,9.8-.45,14.69-.72,2.86-.15,5.72-.31,8.59-.44a1.09,1.09,0,0,1,.91.33,1.26,1.26,0,0,1,.39.89c0,.12.07,11.76-1.13,29.27a435.27,435.27,0,0,1-9.44,66.3,1.24,1.24,0,0,1-1.21,1Zm2-94.84c-4.49.24-9,.48-13.48.67,1.12,24.3,4.78,49.16,6.89,61.94,1.76,10.79,3.5,19.7,4.6,25.1a440.82,440.82,0,0,0,8.14-60.31c1-14.06,1.11-24.31,1.13-27.78Z"/><path class="cls-4" d="M1985.4,1239.06s.71,12.67.26,31.54-2.09,44.05-7.19,68.65c0,0-3.5-13.83-7.22-33.08s-7.65-43.92-9-65.56l11.64-.6C1977.71,1239.77,1981.55,1239.37,1985.4,1239.06Z"/><path class="cls-5" d="M1977.27,1339.56c0-.14-3.55-14.09-7.24-33.16-2.69-13.87-7.46-40.86-9.07-65.71a1.24,1.24,0,0,1,.31-.9,1.2,1.2,0,0,1,.86-.41l11.63-.6c2.45-.16,4.88-.38,7.32-.59,1.41-.13,2.81-.25,4.22-.36a1.23,1.23,0,0,1,1.34,1.16c0,.13.7,12.94.26,31.64-.62,25.56-3,48.73-7.21,68.87a1.24,1.24,0,0,1-1.19,1h0A1.24,1.24,0,0,1,1977.27,1339.56Zm4-98.9c-2.46.22-4.91.43-7.4.59l-10.38.54c1.68,24.36,6.31,50.55,9,64.14,2.29,11.88,4.52,21.75,5.88,27.52a398.88,398.88,0,0,0,6.07-62.88c.36-15.22,0-26.5-.2-30.17Z"/><path class="cls-4" d="M2008.23,1237s.66,11.51.3,29.22a428.89,428.89,0,0,1-6.3,66.31S1998.79,1320,1995,1302s-7.94-41.36-9.85-63C1992.84,1238.39,2000.57,1237.84,2008.23,1237Z"/><path class="cls-5" d="M2001,1332.9c0-.13-3.49-12.8-7.26-30.6-2.74-12.94-7.68-38.34-9.86-63.11a1.23,1.23,0,0,1,1.12-1.34c2.81-.26,5.62-.49,8.43-.72,4.89-.41,9.78-.81,14.64-1.32a1.16,1.16,0,0,1,.93.28,1.25,1.25,0,0,1,.44.88c0,.11.66,11.76.3,29.32a425,425,0,0,1-6.32,66.51,1.24,1.24,0,0,1-1.17,1h-.06A1.24,1.24,0,0,1,2001,1332.9Zm-7.36-93.3-7.18.61c2.22,24.24,7,48.91,9.71,61.57,2.27,10.73,4.42,19.59,5.78,24.94a431.33,431.33,0,0,0,5.31-60.48c.29-14.1-.08-24.35-.23-27.84C2002.61,1238.85,1998.14,1239.23,1993.67,1239.6Z"/><path class="cls-4" d="M2032.06,1234.21s.25,11.54-.4,29.32a570,570,0,0,1-6.21,66.73s-3.18-12.52-6.88-30.44-7.89-41.24-10.34-62.78Z"/><path class="cls-5" d="M2024.25,1330.57c0-.13-3.23-12.76-6.89-30.5-2.66-12.83-7.54-38.07-10.36-62.89a1.24,1.24,0,0,1,1.09-1.37l23.82-2.83a1.2,1.2,0,0,1,1,.29,1.23,1.23,0,0,1,.43.91c0,.12.24,11.79-.4,29.4a561.91,561.91,0,0,1-6.23,66.87,1.24,1.24,0,0,1-1.17,1h0A1.23,1.23,0,0,1,2024.25,1330.57Zm-14.65-92.45c2.83,24.33,7.58,48.87,10.18,61.45,2.14,10.31,4.11,18.9,5.38,24.28a572.3,572.3,0,0,0,5.26-60.37c.52-14.07.46-24.32.42-27.88Z"/><path class="cls-4" d="M2046.71,1225.63s1.78,12.56,2.93,31.36,1.58,43.86-1.61,68.93c0,0-4.64-13.45-9.87-32.3s-11-43.11-14.07-64.6Z"/><path class="cls-5" d="M2046.86,1326.32c0-.13-4.72-13.7-9.89-32.37-3.73-13.37-10.52-39.57-14.11-64.75a1.23,1.23,0,0,1,1.05-1.4l22.62-3.4a1.34,1.34,0,0,1,.93.23,1.25,1.25,0,0,1,.48.82c0,.13,1.8,12.83,2.93,31.46,1.53,25.49,1,48.77-1.61,69.17a1.23,1.23,0,0,1-1.1,1.07H2048A1.22,1.22,0,0,1,2046.86,1326.32Zm-21.37-96.25c3.61,24.66,10.21,50.11,13.86,63.22,3.24,11.66,6.27,21.32,8.1,26.93a386.1,386.1,0,0,0,1-63.16c-.93-15.19-2.28-26.41-2.75-30Z"/><path class="cls-4" d="M2066.87,1227.92s1.77,11.38,3.08,29,2.12,41.54-.3,66.71c0,0-4.58-12.19-9.92-29.74A540.37,540.37,0,0,1,2044.6,1232C2052.09,1230.74,2059.45,1229.27,2066.87,1227.92Z"/><path class="cls-5" d="M2068.49,1324.06c0-.12-4.66-12.42-9.94-29.81a542.13,542.13,0,0,1-15.17-62.07,1.24,1.24,0,0,1,.21-.93,1.21,1.21,0,0,1,.81-.5c4.9-.81,9.75-1.72,14.6-2.63l7.65-1.42a1.26,1.26,0,0,1,.94.22,1.18,1.18,0,0,1,.51.81c0,.12,1.79,11.63,3.09,29.1a398.52,398.52,0,0,1-.31,66.92,1.24,1.24,0,0,1-1.07,1.11h-.16A1.24,1.24,0,0,1,2068.49,1324.06Zm-9-93.5c-4.46.83-8.92,1.67-13.42,2.43a543.83,543.83,0,0,0,14.88,60.54c3.2,10.53,6.15,19.19,8,24.38a405.07,405.07,0,0,0-.18-60.89c-1-14.06-2.4-24.22-2.89-27.64Z"/><path class="cls-4" d="M2108.72,1228.45s-2.66,12.41-8.14,30.46-13.94,41.73-26,63.88c0,0,.42-14.26,2.31-33.74s5.28-44.18,10.22-65.29C2094.33,1225.32,2101.67,1227.21,2108.72,1228.45Z"/><path class="cls-5" d="M2074.26,1324a1.26,1.26,0,0,1-.92-1.24c0-.14.44-14.52,2.31-33.82,2.2-23.17,5.94-47,10.25-65.45a1.25,1.25,0,0,1,1.47-.93c2.45.53,4.91,1.1,7.37,1.66,4.7,1.08,9.56,2.2,14.2,3a1.25,1.25,0,0,1,1,1.48c0,.13-2.74,12.66-8.17,30.56-7.4,24.32-16.18,45.9-26.1,64.11a1.23,1.23,0,0,1-1.09.65A1.87,1.87,0,0,1,2074.26,1324Zm19.92-97.36-6.14-1.4a521,521,0,0,0-9.92,63.94c-1.17,12.14-1.78,22.32-2.07,28.2a351.09,351.09,0,0,0,23.34-58.82c4.42-14.55,7-25.53,7.84-29.11C2102.93,1228.64,2098.49,1227.62,2094.18,1226.63Z"/><path class="cls-4" d="M2128.13,1231.66s-.32,2.86-1,7.88-2.23,12.15-4.25,20.75a307.24,307.24,0,0,1-22.44,62.85s-.31-13,.75-31.41a514.3,514.3,0,0,1,7.33-63.32c3.57.7,7.14,1.41,10.49,1.91,1.67.26,3.5.6,5,.8Z"/><path class="cls-5" d="M2100.14,1324.36a1.26,1.26,0,0,1-1-1.19c0-.13-.3-13.28.75-31.5a512.93,512.93,0,0,1,7.36-63.49,1.21,1.21,0,0,1,.52-.8,1.18,1.18,0,0,1,.93-.19l.38.08c3.37.66,6.85,1.35,10.06,1.82l1.88.31c1.08.18,2.16.36,3.13.49l4.13.54a1.25,1.25,0,0,1,1.07,1.37s-.33,2.87-1,7.89c-.66,5.3-2.4,12.9-4.28,20.89a308.55,308.55,0,0,1-22.53,63.11,1.24,1.24,0,0,1-1.11.7A1.15,1.15,0,0,1,2100.14,1324.36Zm23.7-92c-1-.13-2.1-.32-3.21-.51l-1.84-.3c-3-.44-6.19-1.06-9.32-1.68a513.73,513.73,0,0,0-7.08,62c-.65,11.22-.78,20.51-.79,26a310.07,310.07,0,0,0,20-57.78c1.86-7.92,3.58-15.45,4.23-20.64.45-3.09.74-5.36.9-6.64Z"/><path class="cls-4" d="M1867.17,1241.92s1,11.51,3.57,29.13a623,623,0,0,0,13,65.74s1.87-12.79,3.76-31,3.79-41.83,4.12-63.51Z"/><path class="cls-5" d="M1882.55,1337.1a614.12,614.12,0,0,1-13-65.88c-2.53-17.44-3.57-29.08-3.58-29.19a1.22,1.22,0,0,1,.32-1,1.2,1.2,0,0,1,.93-.39l24.46.37a1.25,1.25,0,0,1,1.22,1.26c-.38,24.59-2.74,50.41-4.12,63.62-1.88,18-3.76,30.91-3.77,31a1.25,1.25,0,0,1-1.16,1.06h-.07A1.24,1.24,0,0,1,1882.55,1337.1Zm-14-93.92c.35,3.55,1.41,13.76,3.43,27.69,3,21.08,6.89,41,11.42,59.43.72-5.49,1.8-14.2,2.89-24.63,1.35-12.94,3.66-38,4.09-62.16Z"/><path class="cls-4" d="M1843.91,1241s-.24,12.69.89,31.53,3.65,43.83,9.46,68.45c0,0,3-13.83,6.14-33.23s6.29-44.17,7-65.84C1859.61,1241.93,1851.75,1241.35,1843.91,1241Z"/><path class="cls-5" d="M1853.05,1341.27c-4.77-20.21-8-43.31-9.49-68.66-1.11-18.67-.89-31.49-.89-31.62a1.28,1.28,0,0,1,.39-.88,1.33,1.33,0,0,1,.9-.34c2.29.1,4.58.22,6.86.34,5.4.28,11,.57,16.43.57h.19a1.25,1.25,0,0,1,1.24,1.29c-.85,24.7-4.79,51.94-7.06,66-3.09,19.22-6.12,33.16-6.15,33.3a1.26,1.26,0,0,1-1.21,1h0A1.24,1.24,0,0,1,1853.05,1341.27Zm-2.36-98.68-5.55-.28c0,3.66,0,15,.9,30.15a418.41,418.41,0,0,0,8.16,62.67c1.17-5.8,3.06-15.66,5-27.57,2.22-13.74,6-40.18,7-64.4C1861,1243.12,1855.76,1242.85,1850.69,1242.59Z"/><path class="cls-4" d="M1820.64,1239.87s-.13,11.5,1,29.15a451.84,451.84,0,0,0,8.95,66.06s2.91-12.68,6-30.78,6.42-41.62,7.56-63.27Z"/><path class="cls-5" d="M1830.58,1336.32a1.24,1.24,0,0,1-1.2-1,448.48,448.48,0,0,1-9-66.23c-1.12-17.5-1-29.14-1-29.25a1.2,1.2,0,0,1,.39-.89,1.07,1.07,0,0,1,.91-.34l23.54,1.16a1.23,1.23,0,0,1,1.17,1.3c-1.28,24.51-5.29,50.25-7.57,63.42-3.08,17.92-6,30.72-6,30.85a1.24,1.24,0,0,1-1.21,1Zm-8.71-95.15c0,3.47.1,13.72,1,27.78a454.37,454.37,0,0,0,7.73,60.2c1.14-5.4,2.94-14.3,4.79-25.07,2.23-12.88,6.13-37.87,7.47-61.88Z"/><path class="cls-4" d="M1797.09,1238.12s-.66,12.67-.17,31.54,2.16,43.93,7.09,68.73c0,0,3.49-13.71,7.28-33s7.84-43.92,9.35-65.55C1812.79,1239.62,1804.94,1238.69,1797.09,1238.12Z"/><path class="cls-5" d="M1804,1339.63a1.23,1.23,0,0,1-1.18-1c-4.06-20.37-6.45-43.57-7.13-68.94-.48-18.7.17-31.51.18-31.64a1.25,1.25,0,0,1,1.33-1.17c2.68.2,5.36.44,8,.68,5.07.44,10.32.91,15.45,1.07a1.26,1.26,0,0,1,.89.41,1.23,1.23,0,0,1,.31.92c-1.71,24.56-6.6,51.71-9.36,65.7-3.75,19.07-7.26,32.9-7.3,33a1.23,1.23,0,0,1-1.2.93Zm1-99.6c-2.25-.2-4.49-.4-6.73-.58-.15,3.66-.51,14.94-.12,30.18a422.82,422.82,0,0,0,6,62.89c1.37-5.75,3.59-15.54,5.92-27.34,2.7-13.69,7.45-40,9.23-64.12C1814.52,1240.87,1809.68,1240.44,1805,1240Z"/><path class="cls-4" d="M1773.8,1236.18s-.5,11.5.06,29.18a454.53,454.53,0,0,0,6.76,66.32s3.33-12.57,7.05-30.56,7.82-41.38,9.68-63Z"/><path class="cls-5" d="M1780.57,1332.92a1.24,1.24,0,0,1-1.17-1,452.27,452.27,0,0,1-6.78-66.51c-.55-17.53-.06-29.15-.06-29.27a1.27,1.27,0,0,1,.42-.87,1.23,1.23,0,0,1,.92-.31l23.56,2a1.25,1.25,0,0,1,1.13,1.34c-2,23.14-6.38,47.1-9.71,63.12-3.68,17.81-7,30.51-7.06,30.63a1.24,1.24,0,0,1-1.2.92Zm-5.57-95.39c-.11,3.47-.35,13.71.1,27.79a457.85,457.85,0,0,0,5.74,60.43c1.32-5.36,3.4-14.2,5.62-24.88,3.25-15.67,7.51-39,9.55-61.59Z"/><path class="cls-4" d="M1749.3,1233.61s.07,11.58,1.13,29.4a648.11,648.11,0,0,0,7.32,66.77s3-12.61,6.43-30.62,7.4-41.41,9.62-63C1765.62,1235.63,1757.46,1234.56,1749.3,1233.61Z"/><path class="cls-5" d="M1757.71,1331a1.23,1.23,0,0,1-1.18-1,636,636,0,0,1-7.33-66.89c-1.06-17.65-1.14-29.36-1.14-29.48a1.24,1.24,0,0,1,1.38-1.24l4.65.56c6.49.77,13.2,1.57,19.8,2a1.23,1.23,0,0,1,.86.44,1.18,1.18,0,0,1,.28.92c-2.37,23.08-6.55,47-9.64,63.09-3.42,17.82-6.4,30.53-6.43,30.66a1.23,1.23,0,0,1-1.21,1Zm-3.92-95.62-3.23-.39c0,3.6.27,13.87,1.11,27.94,1.3,21.56,3.41,41.81,6.28,60.31,1.2-5.43,3-14,5-24.32,3-15.7,7.09-39,9.48-61.6C1766.2,1236.87,1759.9,1236.11,1753.79,1235.39Z"/><path class="cls-4" d="M1726,1230.87s-1.25,12.63-1.64,31.47.1,43.91,3.85,68.83c0,0,4.14-13.61,8.84-32.61s9.93-43.39,12.48-64.92Z"/><path class="cls-5" d="M1728.15,1332.41a1.23,1.23,0,0,1-1.13-1.06c-3.09-20.47-4.39-43.7-3.87-69,.39-18.68,1.64-31.44,1.65-31.57a1.25,1.25,0,0,1,.45-.84,1.33,1.33,0,0,1,.93-.27l23.53,2.77a1.23,1.23,0,0,1,.83.46,1.25,1.25,0,0,1,.25.91c-2.88,24.34-9.08,51.22-12.51,65.08-4.65,18.81-8.81,32.53-8.85,32.67a1.24,1.24,0,0,1-1.19.88Zm-1-100.16c-.32,3.64-1.2,14.9-1.52,30.12a421.49,421.49,0,0,0,3,62.93c1.63-5.69,4.32-15.38,7.2-27,3.36-13.57,9.38-39.67,12.31-63.54Z"/><path class="cls-4" d="M1691.65,1226.18s-8.79,27.9,13.55,97.5c0,0,3.91-12.44,8.47-30.26s9.75-41,12.63-62.52C1718.45,1230,1699.46,1227.49,1691.65,1226.18Z"/><path class="cls-5" d="M1704,1324.06c-22.21-69.18-13.92-97.1-13.56-98.25a1.24,1.24,0,0,1,1.39-.85c7.62,1.27,26.38,3.76,34.59,4.71a1.23,1.23,0,0,1,.83.47,1.2,1.2,0,0,1,.25.93c-3.06,23-8.57,46.74-12.65,62.66-4.51,17.65-8.45,30.2-8.49,30.32a1.22,1.22,0,0,1-1.17.87h0A1.25,1.25,0,0,1,1704,1324.06Zm-11.45-96.47c-1.21,5.53-5.6,33.46,12.61,91.91,1.49-5,4.26-14.54,7.29-26.39,4-15.56,9.34-38.67,12.43-61.12C1716.57,1231,1700.4,1228.84,1692.57,1227.59Z"/><path class="cls-6" d="M1694.53,1533c-15.91,29.81-34.35,58.22-54.13,85.59-19.4,26.85-39.72,53.36-62.26,77.66-11.42,12.31-23.42,24.08-35.87,35.35-12.84,11.63-25.94,23.12-39.84,33.47-14.59,10.86-29.91,20.62-45.44,30,2.88-6.63,5.66-13.3,8.26-20a488.34,488.34,0,0,0,17.42-54.62,445.08,445.08,0,0,0,10.55-56,414.62,414.62,0,0,0,3-56.68q-.1-7.17-.48-14.33c1.11-7.35,2.06-14.57,2.78-21.57,5.6-54.85,138.72-108.58,190.68-127.39,13.42-4.86,31.09-7.11,40.8,3.22C1721.44,1477.3,1709,1505.76,1694.53,1533Z"/><path class="cls-7" d="M1215.89,917.63c5.91,39.08,26.45,48.39,38.72,255.77,1.83,30.95,94.58,19,125.58,18.44,26.42-.47,96.57,4.54,110.93-24.69,4.49-9.13,1.56-20.07-2.13-29.55-33.18-85.43-117.47-160.22-193.61-207.41-10.46-6.48-72.6-41.18-79.2-20.13A17,17,0,0,0,1215.89,917.63Z"/><path class="cls-8" d="M1292.8,1194.88c-25.82-2.39-38.71-9.38-39.43-21.41-9.12-154.14-22.67-198.29-31.63-227.5-3.1-10.09-5.55-18.06-7.07-28.16a18.2,18.2,0,0,1,.33-8.12,9.86,9.86,0,0,1,6.3-6.52c19.66-7.3,74.19,25.63,74.73,26,41.91,26,81,56.93,113.15,89.55,38.3,38.89,65.54,78.74,81,118.46,3.52,9,6.93,20.7,2.09,30.55-12.8,26.07-67.1,25.64-99.54,25.39-4.77,0-9-.07-12.48,0-5.26.09-12.29.51-20.43,1-12.72.77-28.52,1.72-43.91,1.72C1307.9,1195.8,1300.05,1195.54,1292.8,1194.88Zm99.91-4.27c31.85.24,85.18.67,97.3-24,4.42-9,1.16-20-2.18-28.57-13.4-34.49-59-123.71-193.11-206.8-10.55-6.54-56.62-31.65-72.55-25.75a7.4,7.4,0,0,0-4.81,4.94h0a16,16,0,0,0-.24,7c1.5,9.91,3.92,17.81,7,27.8,9,29.33,22.6,73.64,31.74,228.09.62,10.44,13.13,16.86,37.18,19.08,21,1.93,47.38.35,66.6-.8,8.17-.49,15.23-.92,20.54-1,1.4,0,2.94,0,4.58,0C1387.18,1190.57,1389.85,1190.58,1392.71,1190.61Z"/><path class="cls-7" d="M855,1022.31c2.67,17.65,11.95,21.86,17.49,115.53.83,14,42.72,8.58,56.73,8.33,11.93-.21,43.62,2,50.11-11.15,2-4.13.7-9.06-1-13.35-15-38.59-53.06-72.37-87.45-93.69-4.73-2.92-32.8-18.6-35.78-9.09A7.7,7.7,0,0,0,855,1022.31Z"/><path class="cls-8" d="M889.63,1148.22c-12-1.11-18.08-4.48-18.43-10.3-4.11-69.55-10.21-89.45-14.26-102.61a85,85,0,0,1-3.21-12.82,8.87,8.87,0,0,1,.17-4,5.18,5.18,0,0,1,3.26-3.38c9.19-3.42,34.1,11.64,34.35,11.79,20.33,12.6,69.59,47,88,94.29,1.64,4.22,3.22,9.66.92,14.35-6,12.16-30.75,12-45.58,11.85-2.14,0-4.06,0-5.62,0-2.36,0-5.53.24-9.2.46-5.76.34-12.91.77-19.88.77C896.5,1148.64,892.93,1148.53,889.63,1148.22Zm45.2-3.28c13.3.1,38,.3,43.33-10.46,1.88-3.83.45-8.62-1-12.36-6-15.52-26.57-55.66-87-93.08-4.7-2.92-25.25-14.16-32.17-11.57a2.63,2.63,0,0,0-1.76,1.79h0a6.48,6.48,0,0,0-.08,2.86,82.93,82.93,0,0,0,3.13,12.46c4.08,13.28,10.24,33.34,14.37,103.19.26,4.33,5.7,7,16.18,8,9.45.87,21.32.16,30-.36,3.7-.22,6.89-.41,9.3-.46h2.09Z"/><path class="cls-7" d="M855,1022.31c2.67,17.65,11.95,21.86,17.49,115.53.83,14,42.72,8.58,56.73,8.33,11.93-.21,43.62,2,50.11-11.15,2-4.13.7-9.06-1-13.35-15-38.59-53.06-72.37-87.45-93.69-4.73-2.92-32.8-18.6-35.78-9.09A7.7,7.7,0,0,0,855,1022.31Z"/><path class="cls-7" d="M690.65,1287.68c-2.66,9.6,29.42,11.7,35,11.81,40.46.8,90.77-6.87,124.33-31.11,3.72-2.69,7.52-6.12,8.06-10.69,1.73-14.6-26.1-29.92-36-36.59-11.62-7.82-43.85-35.12-52.14-23.84-55.57,75.62-65.64,74.11-77.48,87.48A7.76,7.76,0,0,0,690.65,1287.68Z"/><path class="cls-7" d="M833.92,1458.17c-2.66,9.6,29.42,11.7,35,11.81,40.46.8,90.78-6.87,124.33-31.11,3.73-2.7,7.53-6.12,8.07-10.69,1.73-14.6-26.1-29.93-36-36.59-11.62-7.82-43.85-35.13-52.15-23.84-55.56,75.62-65.63,74.11-77.47,87.48A7.63,7.63,0,0,0,833.92,1458.17Z"/><path class="cls-8" d="M868.87,1471.22c-.29,0-29.4-.93-35.24-8.77a5.17,5.17,0,0,1-.9-4.61,8.76,8.76,0,0,1,2-3.43h0a83.76,83.76,0,0,1,9.66-9c10.55-8.86,26.49-22.24,67.74-78.38,3.46-4.7,10.35-4.26,21.07,1.36,8.58,4.49,18.23,11.6,25.29,16.79,3,2.18,5.52,4.07,7.48,5.39,1.3.88,2.91,1.9,4.72,3,12.5,8,33.41,21.27,31.82,34.72-.62,5.18-4.9,8.89-8.57,11.54-38.3,27.67-93,31.4-119.66,31.4C872.32,1471.27,870.51,1471.25,868.87,1471.22Zm45.27-102.73c-41.43,56.38-57.5,69.88-68.14,78.81a80.38,80.38,0,0,0-9.4,8.75,6.47,6.47,0,0,0-1.49,2.45,2.7,2.7,0,0,0,.5,2.46c4.43,5.94,27.77,7.67,33.31,7.78,71.08,1.43,110.08-21.13,123.58-30.88,3.25-2.35,7.06-5.6,7.56-9.82,1.41-11.91-19.47-25.2-30.69-32.34-1.83-1.16-3.46-2.2-4.78-3.08-2-1.35-4.58-3.25-7.56-5.45-7-5.14-16.56-12.19-25-16.59q-8.16-4.27-12.92-4.28A5.79,5.79,0,0,0,914.14,1368.49Z"/><path class="cls-7" d="M833.92,1458.17c-2.66,9.6,29.42,11.7,35,11.81,40.46.8,90.78-6.87,124.33-31.11,3.73-2.7,7.53-6.12,8.07-10.69,1.73-14.6-26.1-29.93-36-36.59-11.62-7.82-43.85-35.13-52.15-23.84-55.56,75.62-65.63,74.11-77.47,87.48A7.63,7.63,0,0,0,833.92,1458.17Z"/><path class="cls-7" d="M503.62,1075c42.44-71.56-68.13-391.28-42.54-368.9,62.71,54.81,113.69,123.87,160.15,192.52q33.27,49.15,62.9,100.59c25.8,44.66,57.77,88.17,29,139.36-31.09,55.31-92.8,92.71-148.51,119.41-65.1,31.2-134.91,50.63-203.63,72-2.94.91-42.13,10.24-42.37,11.69C322.43,1318.54,476.86,1120.08,503.62,1075Z"/><path class="cls-9" d="M680.68,1084.41c18,4.84,67.4,8.17,129.58,10.41q49.17,1.77,98.57,2.9c-13.43.75-26.83,1.82-40.15,3.69-18.86,2.66-37.94,6.83-55.13,15.3-10.48,5.17-20.08,12.5-25.13,23.33-4.41,9.45-4.85,20-3.19,30.17,2,12.18,6.82,23.82,12.44,34.73a274.76,274.76,0,0,0,23.15,36.59c17.37,23.66,37.1,45.53,57.53,66.56,20,20.56,40.36,40.71,62.52,58.92,19.8,16.28,40.52,31.38,61.42,46.2,19.25,13.64,38.18,28,58.06,40.7,18.43,11.79,38.85,22.26,61,24.32,18.26,1.71,36.27-3.68,53.1-10.22,34.24-13.32,70.07-34.17,107.74-23.64-9.8,9.08-20.09,17.61-29.92,26.66a197.79,197.79,0,0,0-25.26,27.6c-8.8,11.88-15.83,25-22.29,38.27l-.1.22c-136.68-48.91-266.14-129.71-369.13-222-50.17-44.95-96.93-96-131.07-154.46-10.47-17.92-31.67-49.66-31.6-73.91A18.21,18.21,0,0,1,680.68,1084.41Z"/><path class="cls-6" d="M1350.55,1429a241.2,241.2,0,0,0-31,3.69,109.12,109.12,0,0,0-24.19,7.19c-14.26,6.16-26.37,15.91-37.26,26.83-12,12.06-23,25.16-35,37.23a482.94,482.94,0,0,1-40,36c-29.11,23.34-61.72,43.74-97.53,55a171.53,171.53,0,0,1-49,8.07c5.84-2.94,11.65-5.92,17.39-9a578.49,578.49,0,0,0,57.5-35.9,525.68,525.68,0,0,0,52.34-42.37,490.87,490.87,0,0,0,46.12-48.77q5.38-6.54,10.53-13.28c6.62-5.78,13-11.56,19-17.32,25.83-24.8,86.07-19.84,145.28-6.56A259.51,259.51,0,0,0,1350.55,1429Z"/><path class="cls-7" d="M672.79,1086.75c-.07,24.25,21.13,56,31.6,73.91,34.14,58.41,80.9,109.51,131.07,154.46,154.86,138.77,369.56,251.68,578.71,269,141.62,11.75,292.54-.38,422.28-54.17,5.62,1.66,12.21,1.14,17.77.85,6.42-.34,13.47,0,19.47-2.7,3.87-1.71,8.17-5.26,6.72-10-1.2-4-5.24-6.88-8.61-8.93a89.25,89.25,0,0,0-9.75-5q-6.33-4.59-12.33-9.43l-7.89-6.33c-36.14-28.93-72-57.27-99.24-95.24-26-36.28-43.39-78.63-46.74-123.37-.84-11.24.9-27.26,14.34-30.12,5.1-1.08,10.38-.13,15.5.83,36.39,6.78,72.62,13.92,109.48,17.64,37.34,3.77,74.87,6.06,112.4,6.6,24.24.36,48.52-.09,72.69-2,26.52-2.13,113.55-18.9,122.47-22.91,20.57-52.07,30.33-99.69,37.65-166.43,3.18-29,1-81.63-38.57-86.42-22.6-2.74-48.63,7-70.81,11.1-23.51,4.38-47,8.76-70.3,14.36-166.76,40.18-335.36,59-506.22,71.75-227.61,16.93-456.19,18.81-684.22,10.59-62.18-2.24-111.56-5.57-129.58-10.41A18.21,18.21,0,0,0,672.79,1086.75Z"/><path class="cls-10" d="M686.56,1111.69c44.51,45.69,94.88,85,147.9,120.35,30.61,20.39,62.06,39.48,93.93,57.83,28.92,16.65,57.92,33.27,88.37,47,57.32,25.83,118.24,43.82,180.09,54.89,62.13,11.11,126,15.45,188.89,9.56,30.28-2.84,60.59-7.85,89.61-17.13,28.09-9,54.79-21.78,80.21-36.69,48.6-28.48,92.78-63.81,141.19-92.59a51.63,51.63,0,0,0-.9,14.95c3.35,44.74,20.72,87.09,46.74,123.37,27.24,38,63.1,66.31,99.24,95.24l7.89,6.33q6,4.83,12.33,9.43a89.25,89.25,0,0,1,9.75,5c3.37,2,7.41,5,8.61,8.93,1.45,4.74-2.85,8.29-6.72,10-6,2.65-13,2.36-19.47,2.7-5.56.29-12.15.81-17.77-.86-129.74,53.8-280.66,65.93-422.28,54.18-209.15-17.34-423.85-130.25-578.71-269-50.17-44.95-96.93-96-131.07-154.46-8.81-15.07-25.15-39.89-30.1-61.83Q680.41,1105.37,686.56,1111.69Z"/><path class="cls-6" d="M1569.12,1264.26a19.36,19.36,0,0,1,6.91-3.3,29.65,29.65,0,0,0-3,12.27c-.61,11.78,1.92,23.79,4.63,35.17,3.38,14.23,7.75,28.22,12.42,42.08,4.25,12.6,8.81,25.09,13.4,37.57,1.79,4.89,3.8,9.82,5.49,14.82a183.46,183.46,0,0,1-12.83-19.73,358.67,358.67,0,0,1-18.73-36.76c-5.64-12.86-10.61-26.14-13.77-39.84-2.36-10.28-4.26-21.92-1.1-32.25A19.89,19.89,0,0,1,1569.12,1264.26Z"/><path class="cls-6" d="M1533.82,1264.75a21,21,0,0,1,4.1-2.49c-4.62,4.58-6.63,11.08-6.49,18.07.18,9.07,2.93,18,5.84,26.52,1.35,3.93,2.81,7.84,4.14,11.78,2,6,3.7,12.07,5.51,18.11,6.71,22.39,13.59,44.77,22.16,66.5-2-3.44-3.91-6.89-5.82-10.37-7.07-12.94-13.77-26.09-19.79-39.54-6.14-13.75-11.7-27.89-15.32-42.53-2.75-11.09-5-23.7-1.59-34.91A22.41,22.41,0,0,1,1533.82,1264.75Z"/><path class="cls-6" d="M1496.05,1265a15.06,15.06,0,0,1,5.62-2.64,16.09,16.09,0,0,0-5.56,9.43c-1.77,8-.21,16.7,1.59,24.59s4.22,15.51,6.53,23.18c5.71,19,11.7,37.91,18.17,56.66q-5-10-9.78-20.09c-6.81-14.61-13.17-29.54-17.86-45a128.34,128.34,0,0,1-4.58-19.92,47.52,47.52,0,0,1,0-15.83C1491,1271.37,1492.76,1267.53,1496.05,1265Z"/><path class="cls-6" d="M1463.2,1270.37a24.87,24.87,0,0,0-3.45,13c-.15,8.85,2,17.71,4.33,26.18,2.26,8.13,4.93,16.14,7.19,24.28,4.72,16.93,8.53,34.47,14.48,51.12-1.22-2.52-2.49-5-3.68-7.56-5.85-12.39-11.37-24.94-16.28-37.73a295,295,0,0,1-11.41-34.77c-1.86-7.56-3.34-16-.5-23.51C1455.66,1276.68,1459.12,1273.14,1463.2,1270.37Z"/><path class="cls-11" d="M2060.15,1188.32c3.9-6.14,11-10.13,17.11-13.63a69.83,69.83,0,0,1,11.36-5.39c2.71-1,5.9-1.89,8.73-.91,11,3.77-1.11,16.88-4.51,21.76-.4.56-1.42-.21-1.14-.8,1.64-3.33,3.59-6.47,5.23-9.8.86-1.74,3.34-6.56.86-8a4.06,4.06,0,0,0-2.45-.42,1.34,1.34,0,0,0-1.39-.27,10.51,10.51,0,0,0-2.66,1.33l-.11,0c-.48.17-.94.39-1.41.58a1.11,1.11,0,0,1,.3.31,14.46,14.46,0,0,0-3.15,4.16c-.71,1.38-1.28,2.82-2,4.19a45.43,45.43,0,0,1-3.06,4.73,64,64,0,0,1-11.81,13c-3.54,1.16-8.16,1.67-10.79-1.12S2058.38,1191.11,2060.15,1188.32Z"/><path class="cls-4" d="M1893,1182c11.32,4.72,24.89,1.16,34.4-6.57s15.52-19,19.64-30.57c2.7-7.57,4.73-15.71,3.27-23.62-8.23-44.7-60.71-9.07-70.22,14.62C1873.59,1152.08,1874.35,1174.2,1893,1182Z"/><path class="cls-12" d="M1892.54,1183.13c-13.51-5.64-23.52-23-13.58-47.75,6.24-15.56,33-38.66,52.88-36.65,7.26.73,16.56,5.18,19.71,22.26,1.61,8.75-.93,17.57-3.32,24.27-5,14.06-11.57,24.24-20,31.11a39,39,0,0,1-24.21,9A29.72,29.72,0,0,1,1892.54,1183.13Zm-11.28-46.83c-6.53,16.27-5.49,37.15,12.24,44.54,10.14,4.23,23.15,1.72,33.14-6.39,8.09-6.58,14.39-16.4,19.25-30,2.29-6.41,4.72-14.82,3.22-23-2.3-12.51-8.2-19.32-17.52-20.25-.72-.07-1.45-.11-2.19-.11C1911.88,1101.09,1887.61,1120.48,1881.26,1136.3Z"/><path class="cls-13" d="M1894.6,1080c24.46-4.23,45.62,12.34,57.91,32.09,5.66,9.1,10.52,19.59,11.91,30.3,0,.28.74,3.74,1.16,5.1l.45-.25a9.07,9.07,0,0,0,2.1-2.35c2.62-3.75,4.23-8.1,6.08-12.25a69.14,69.14,0,0,0,5.19-17.22c1-6.06,1.21-13-2.52-18.22-.49-.68.54-.87,1-.45,8.13,8.27,5.53,22.76,2.32,32.62a110.5,110.5,0,0,1-5.22,12.83c-1.57,3.31-4.43,9.9-9,9.34-4.92-.6-5.45-7.08-6-10.89-.7-5.3-2.68-10.45-4.78-15.34-4.85-11.3-12-22-21.4-30a51.87,51.87,0,0,0-37.92-12.72C1894.64,1082.65,1892.92,1080.25,1894.6,1080Z"/><path class="cls-13" d="M1870.3,1134.27a46.1,46.1,0,0,1,1.47-10.25c1-3.59,2.44-7.17,2.75-10.91.09-1.13,1.74-.5,1.79.38a49,49,0,0,1-1.12,11.25,58.59,58.59,0,0,0-.74,12.27,132.17,132.17,0,0,0,2.58,20.4c2.34,12.14,6.09,24.68,15.1,33.59,1.21,1.19-.35,2.57-1.58,1.55-7.79-6.41-12.71-15.88-15.56-25.44a114.12,114.12,0,0,1-3.27-15A91.5,91.5,0,0,1,1870.3,1134.27Z"/><path class="cls-8" d="M1870.23,1161.39c.57,5.25,1,11.1,4,15.64a1.2,1.2,0,0,1-.51,1.88,2.26,2.26,0,0,1-2.32-1.05,18.77,18.77,0,0,1-2.84-8.32,75.46,75.46,0,0,1-.55-8.63C1867.94,1159.48,1870.11,1160.31,1870.23,1161.39Z"/><path class="cls-14" d="M1925.05,1112.68c-8.49-2.93-17.75-1.17-25.91,2-1.51.59-3,1.27-4.45,1.94,19.21-17.53,49.55-28.47,55.64,4.62,1.46,7.91-.57,16-3.27,23.62-.24.66-.5,1.32-.75,2C1945.76,1132.54,1939.4,1117.64,1925.05,1112.68Z"/><path class="cls-15" d="M1569.76,1265.66c.38-4,1.43-8.32,4.73-10.86,3.61-2.79,8.67-2.2,12.61-.52.86.37,1.11,1.83-.14,1.62a21.65,21.65,0,0,0-5.28-.4,19.29,19.29,0,0,0-5.28,7.33,28.72,28.72,0,0,0-1.69,10.07c-.09,7.43,1.33,14.86,2.57,22.16.31,1.77.62,3.54.87,5.33,5.32,37.21,21.38,73.68,35.35,108.24-3-7.37-9-13.43-12.13-20.83a468.68,468.68,0,0,1-19.09-55.92c-3.47-12.62-6.48-25.37-9.38-38.13C1570.83,1284.65,1568.86,1275,1569.76,1265.66Z"/><path class="cls-15" d="M1530.41,1271.49c.38-3.94,1.43-8.31,4.73-10.85,3.61-2.8,8.67-2.2,12.61-.52.86.37,1.11,1.82-.14,1.61a22.16,22.16,0,0,0-5.28-.4,19.29,19.29,0,0,0-5.28,7.33,29,29,0,0,0-1.69,10.07c-.09,7.44,1.33,14.86,2.57,22.16.31,1.78.62,3.55.87,5.33,5.32,37.21,21.38,73.69,35.35,108.25-3-7.37-9-13.43-12.13-20.83a470.62,470.62,0,0,1-19.09-55.93c-3.47-12.61-6.48-25.37-9.38-38.12C1531.48,1290.49,1529.51,1280.86,1530.41,1271.49Z"/><path class="cls-15" d="M1493.1,1275.05c.37-3.76,1.36-7.92,4.5-10.35,3.45-2.66,8.28-2.09,12-.49.82.35,1.06,1.74-.13,1.54a21.23,21.23,0,0,0-5-.39,18.31,18.31,0,0,0-5,7,27.47,27.47,0,0,0-1.61,9.6c-.09,7.08,1.27,14.16,2.45,21.12.29,1.69.59,3.38.83,5.08,5.07,35.48,20.39,70.25,33.7,103.21-2.81-7-8.62-12.81-11.56-19.87a445.22,445.22,0,0,1-18.2-53.31c-3.31-12-6.18-24.19-9-36.35C1494.12,1293.16,1492.24,1284,1493.1,1275.05Z"/><path class="cls-15" d="M1457.71,1277.36c.34-3.59,1.29-7.56,4.29-9.88,3.29-2.54,7.9-2,11.48-.47.79.34,1,1.66-.13,1.47a20.25,20.25,0,0,0-4.8-.36,17.59,17.59,0,0,0-4.81,6.67,26.38,26.38,0,0,0-1.53,9.16c-.09,6.76,1.21,13.52,2.34,20.16.28,1.62.56,3.23.79,4.85,4.84,33.85,19.45,67,32.16,98.49-2.69-6.71-8.23-12.22-11-19a424.17,424.17,0,0,1-17.37-50.88c-3.16-11.47-5.9-23.08-8.54-34.69C1458.68,1294.65,1456.88,1285.89,1457.71,1277.36Z"/><path class="cls-16" d="M1894.87,1161c-1.69,5.23-2.3,11.73,1.68,15.54,8.27,7.92,22.78-1.62,29-7.67,8.06-7.8,13.79-18.22,17.22-28.81,4.23-13-1.91-25.44-16.23-17.83-13.77,7.32-24.16,20-30.06,34.3Q1895.6,1158.79,1894.87,1161Z"/><path class="cls-17" d="M1907.55,1159.81c-1.06,3.3-1.44,7.39,1.06,9.79,5.21,5,14.35-1,18.29-4.83a44.39,44.39,0,0,0,10.85-18.16c2.66-8.2-1.2-16-10.22-11.23-8.68,4.61-15.23,12.6-18.94,21.62C1908.2,1157.94,1907.85,1158.88,1907.55,1159.81Z"/><path class="cls-4" d="M1914,1147.61c-.85,2.62-1.15,5.87.84,7.77,4.13,4,11.39-.81,14.51-3.83a35.28,35.28,0,0,0,8.61-14.41c2.11-6.51-1-12.71-8.11-8.91a33.92,33.92,0,0,0-15,17.15C1914.47,1146.13,1914.19,1146.88,1914,1147.61Z"/><path class="cls-7" d="M1053.93,1594a578.49,578.49,0,0,0,57.5-35.9,525.68,525.68,0,0,0,52.34-42.37,490.87,490.87,0,0,0,46.12-48.77q5.38-6.54,10.53-13.28c6.62-5.78,13-11.56,19-17.32,47-45.15,208.13,8.29,269.36,31.1,19.82,7.38,42.62,23.55,31.44,47.87-6,13-18.74,21.42-31.2,28.5-83.44,47.43-184.68,73.63-279.91,82-50.3,4.4-147.6,22.7-191.62-10.36-4-3-6.2-6.14-7-9.33C1038.36,1602.16,1046.2,1598.17,1053.93,1594Z"/><path class="cls-15" d="M1656.41,1238.84c.48-7,1.8-14.12,5.34-20.33,8.89-15.61,28.6-16.35,44.25-12.74a116.43,116.43,0,0,1,16.52,5.21c5.22,2.06,10.13,4.61,15.16,7.09.75.37.64,1.53-.29,1.12-4.06-1.83-8.32-3.26-12.52-4.74-4.68-1.64-9.43-3.14-14.26-4.31-8.88-2.15-18.33-3.64-27.36-1.53a27.37,27.37,0,0,0-16.85,11.12c-3.71,5.5-5.32,12.19-6.16,18.69-1,7.94-.52,15.9-1.07,23.85-.08,1.12-1.58.42-1.71-.36A101.21,101.21,0,0,1,1656.41,1238.84Z"/></g></g></svg>