<svg xmlns="http://www.w3.org/2000/svg" viewBox="0 0 2500 2500"><defs><style>.cls-1{isolation:isolate;}.cls-2{fill:#368eb7;}.cls-3,.cls-6,.cls-7{fill:#010101;}.cls-3{opacity:0.5;}.cls-3,.cls-7,.cls-8{mix-blend-mode:soft-light;}.cls-4{fill:#dbd9d9;}.cls-5{fill:#26709e;}.cls-6{opacity:0.6;}.cls-7{opacity:0.3;}.cls-8{fill:#442a18;}.cls-9{fill:#fff;}</style></defs><g class="cls-1"><g id="Layer_1" data-name="Layer 1"><path class="cls-2" d="M734.68,1371s17.93,36.12-27.89,57.45-59.76,32.09-56.63,39.63,88.83,66.09,198.57-10.26Z"/><path class="cls-3" d="M734.68,1371s17.93,36.12-27.89,57.45-59.76,32.09-56.63,39.63,88.83,66.09,198.57-10.26Z"/><path class="cls-2" d="M1907.74,1524.55c-285.75,171.08-921.62,122.07-1191-172.32C517.88,1128.78,501.53,1138,463.55,1114.3c-104.42-65-211.8-163.88-236.71-283.87-4.15-18.66-8.52-54.35-7.22-61.45-.18-17.85,9.8-42.6,23.7-48.23,17.15-6.1,16.5,15.86,27.38,20.6,32.78,13.84,192.24,79.9,231.17,59.2C545.23,777.48,736.79,650,899,699.05s321.75,224.35,477.1,475.62c151.13,244.13,411.72,344.21,522.88,269.54,106.79-72.73,81.21-154.59,101.18-162.85C2020.38,1274.17,2079.57,1423.8,1907.74,1524.55Z"/><path class="cls-4" d="M1758.71,1581.45c-152.54,66-748.33,93.72-1059-248.06-20.6-23.61-75.77-82-97.42-104.64-100.42-104.54-87.57-80.57-158.32-127C353.2,1042.3,269.83,961.85,235.2,858.64c-39.47-111.07,6.1-152.56,22-135,1.77,27.9-14.51,55.22-12.15,84.49C256.24,953,447.42,1035.76,481.6,1033.51c11-.61,21.6-5,32.64-5.56,67.15-2.58,93.13,115.75,172.22,76.68,16.48-8.13,33.17-30.09,41.59-32.62,9-2.49,25.92,8,26.12,36.25.06,22-6.85,36.67,6.59,64.82,23.77,50.48,86,90.45,131,120.18C979,1351.06,1163,1520,1493.48,1578,1580.19,1593.49,1673.67,1600.24,1758.71,1581.45Z"/><path class="cls-5" d="M272.69,743.58c-84.64,78,55.92,216,148.38,230.9,53.78,4.79,116.51-8,163.19,26.62,22.45,15.77,43.36,35,69.31,44.2,23.68,8.39,56.6.72,71-20.51,7.83-12.82,16.27,35.19-44.89,40.37-41.47,3.19-74.08-29.33-104.67-51-45-34-123.62-18.95-156.18-25.2C314.79,970.17,175.09,818.51,268.7,739,273,735.61,275.29,743.42,272.69,743.58Z"/><path class="cls-5" d="M738.17,1034.52c3.23.75,2.68,5.78-.58,5.86-13.06,1.36-27.88-15.5-24.3-33.55.18-3.74,5-4.77,6-1C720.21,1005.75,722.67,1030,738.17,1034.52Z"/><path class="cls-6" d="M758.89,1010.53c32.38-24.44,58.4,1.55,48.9-.26-15.92-2.39-32.08.29-47.91,3.13a1.55,1.55,0,0,1-1-2.87Z"/><path class="cls-6" d="M761.85,1028.11c58.39-10.76,76.94,24.48,67.54,18.62-20.71-11.58-44.48-12-67.41-15.6a1.55,1.55,0,0,1-.13-3Z"/><path class="cls-6" d="M537.9,858a1.53,1.53,0,0,1-2.1,2.11c-25.76-16.67-49.56-63.42-43.07-56.86C493.56,803.15,519.28,831.07,537.9,858Z"/><path class="cls-6" d="M556.38,843.74a1.56,1.56,0,0,1-1.51,2.62c-22.37-6.84-39.25-34.19-34.25-56.35C522.44,789.9,528.22,821.71,556.38,843.74Z"/><path class="cls-2" d="M2280.19,1329c-9.27,116.9-159.87,97.23-213.46,97.84-33.35.45-69.73,26.17-92.32,45.54,70-74.47,55.23-154.8,38.18-181.82l2-6.58c138-71.32,41.45-274.45,41.45-274.45C2141.58,1017.46,2289.53,1212,2280.19,1329Z"/><path class="cls-7" d="M2280.19,1329c-9.27,116.9-159.87,97.23-213.46,97.84-33.35.45-69.73,26.17-92.32,45.54,70-74.47,55.23-154.8,38.18-181.82l2-6.58c138-71.32,41.45-274.45,41.45-274.45C2141.58,1017.46,2289.53,1212,2280.19,1329Z"/><path class="cls-2" d="M2000.21,1281.36c-19.68,8.15,4.75,87.11-94.22,158,1-1.39,21.43-28.61,3.23-49.54-18.61-21.47-173.91-105.55-159.34-183.33s192.43-221.32,214.34-215-71,155.39-34.06,224.69S2000.21,1281.36,2000.21,1281.36Z"/><path class="cls-7" d="M2000.21,1281.36c-19.68,8.15,4.75,87.11-94.22,158,1-1.39,21.43-28.61,3.23-49.54-18.61-21.47-173.91-105.55-159.34-183.33s192.43-221.32,214.34-215-71,155.39-34.06,224.69S2000.21,1281.36,2000.21,1281.36Z"/><path class="cls-8" d="M682.35,991.26c-56.17,4-66.43-80.65-16-93.64C731.31,880.91,758.37,985.24,682.35,991.26Z"/><path class="cls-8" d="M682.35,991.26c-56.17,4-66.43-80.65-16-93.64C731.31,880.91,758.37,985.24,682.35,991.26Z"/><path class="cls-9" d="M687.07,986c-47.76.33-51.28-64.31-12.6-74.26C726.46,898.31,748.13,980.94,687.07,986Z"/><path class="cls-2" d="M685.83,986c-25.47-24.87,4.3-67.78,35.4-50.4C731.43,961.71,714.1,985.79,685.83,986Z"/><path class="cls-8" d="M685.83,986c-25.47-24.87,4.3-67.78,35.4-50.4C731.43,961.71,714.1,985.79,685.83,986Z"/><path class="cls-8" d="M685.83,986c-25.47-24.87,4.3-67.78,35.4-50.4C731.43,961.71,714.1,985.79,685.83,986Z"/><path class="cls-9" d="M687.18,938.29c11.19,12.55,0,22.56-11.21,10S676,925.73,687.18,938.29Z"/><path class="cls-6" d="M743.72,973.86c-1.62,1.64-3.15,6.56-5.84,5.17a1.51,1.51,0,0,1-.45-1.74c15.25-29.65-1.91-59-26.91-76.26a1.53,1.53,0,0,1,1.59-2.59C726.2,897.55,768.84,938.73,743.72,973.86Z"/><path class="cls-6" d="M752.08,925.14c22.52,11.79,20.06,35.58,15.17,33.42-2.12-.94.84-3.07-7.68-17.19-2.53-4.25-6.85-10-9.72-14.16a1.55,1.55,0,0,1,2.23-2.07Z"/><path class="cls-2" d="M1125.91,900.91s9,39.65,112.4,24.09,220-7.4,261.57,79.77-10.16,30.06-44.57,40.1-73,59.37-92.07,143Z"/><path class="cls-2" d="M1293,1406.43c16.88,108-104.15,243.91-116.34,280.54s23.79,125.12,23.79,125.12c-91.81-27.69-162.56-126.42-162.56-126.42-53.36-78.06-73-161.82-78.23-232.81-10.76-142.63,32.22-173-16.74-255.36Z"/></g></g></svg>