<svg id="Layer_1" data-name="Layer 1" xmlns="http://www.w3.org/2000/svg" viewBox="0 0 2500 2500"><defs><style>.cls-1{fill:#e3ba54;}.cls-2{fill:#d7e26e;}.cls-3{fill:#bbcf32;}.cls-4{fill:#b2832d;}.cls-5{fill:#fff;}.cls-6{fill:#010101;}</style></defs><path class="cls-1" d="M788.94,1167.57S567.76,1087,168.26,1049.2l180.9,175.93L168.26,1381s412.25,1.72,620.68-89.63Z"/><path class="cls-1" d="M1676.42,1454.1s-211.58,153-294.47,175.64l-3.82-175.64S1646.79,1361.39,1676.42,1454.1Z"/><path class="cls-1" d="M1631.09,993.42s-74.72-78.35-343.48-123.16l57.11,128.45,102.07,65.67h151.82Z"/><path class="cls-2" d="M2331.74,1230.14s-731.21-542.76-1658.42,0C673.32,1230.14,1495,1750.3,2331.74,1230.14Z"/><path class="cls-3" d="M2331.74,1230.14H673.32S1495,1750.3,2331.74,1230.14Z"/><path class="cls-4" d="M430.94,1083.18l47.61,131.91-47.61,152.48h0C288,1381.44,168.26,1381,168.26,1381l180.9-155.86L168.26,1049.2C267,1058.56,354.68,1070.54,430.94,1083.18Z"/><path class="cls-5" d="M1899.92,1178.45a67.55,67.55,0,1,0,67.63-67.67A67.53,67.53,0,0,0,1899.92,1178.45Z"/><path class="cls-6" d="M1925.63,1178.45a41.86,41.86,0,1,0,41.92-41.9A41.92,41.92,0,0,0,1925.63,1178.45Z"/></svg>